<svg width="16" height="17" viewBox="0 0 16 17" fill="none" xmlns="http://www.w3.org/2000/svg">
<path d="M5.35161 13.1949C5.35161 13.2613 5.27742 13.3145 5.18387 13.3145C5.07742 13.3244 5.00323 13.2713 5.00323 13.1949C5.00323 13.1285 5.07742 13.0754 5.17097 13.0754C5.26774 13.0654 5.35161 13.1186 5.35161 13.1949ZM4.34839 13.0455C4.32581 13.1119 4.39032 13.1883 4.4871 13.2082C4.57097 13.2414 4.66774 13.2082 4.6871 13.1418C4.70645 13.0754 4.64516 12.999 4.54839 12.9691C4.46452 12.9459 4.37097 12.9791 4.34839 13.0455ZM5.77419 12.9891C5.68064 13.0123 5.61613 13.0754 5.62581 13.1518C5.63548 13.2182 5.71935 13.2613 5.81613 13.2381C5.90968 13.2148 5.97419 13.1518 5.96452 13.0854C5.95484 13.0223 5.86774 12.9791 5.77419 12.9891ZM7.89677 0.265625C3.42258 0.265625 0 3.76191 0 8.36719C0 12.0494 2.25161 15.2004 5.46774 16.3094C5.88064 16.3857 6.02581 16.1234 6.02581 15.9076C6.02581 15.7018 6.01613 14.5662 6.01613 13.8689C6.01613 13.8689 3.75806 14.367 3.28387 12.8795C3.28387 12.8795 2.91613 11.9133 2.3871 11.6643C2.3871 11.6643 1.64839 11.143 2.43871 11.1529C2.43871 11.1529 3.24194 11.2193 3.68387 12.0096C4.39032 13.2912 5.57419 12.9227 6.03548 12.7035C6.10968 12.1723 6.31936 11.8037 6.55161 11.5846C4.74839 11.3787 2.92903 11.1098 2.92903 7.91563C2.92903 7.00254 3.17419 6.54434 3.69032 5.95996C3.60645 5.74414 3.33226 4.8543 3.77419 3.70547C4.44839 3.48965 6 4.60195 6 4.60195C6.64516 4.41602 7.33871 4.31973 8.02581 4.31973C8.7129 4.31973 9.40645 4.41602 10.0516 4.60195C10.0516 4.60195 11.6032 3.48633 12.2774 3.70547C12.7194 4.85762 12.4452 5.74414 12.3613 5.95996C12.8774 6.54766 13.1935 7.00586 13.1935 7.91563C13.1935 11.1197 11.2935 11.3754 9.49032 11.5846C9.7871 11.8469 10.0387 12.3449 10.0387 13.1252C10.0387 14.2441 10.029 15.6287 10.029 15.901C10.029 16.1168 10.1774 16.3791 10.5871 16.3027C13.8129 15.2004 16 12.0494 16 8.36719C16 3.76191 12.371 0.265625 7.89677 0.265625ZM3.13548 11.7174C3.09355 11.7506 3.10323 11.827 3.15806 11.89C3.20968 11.9432 3.28387 11.9664 3.32581 11.9232C3.36774 11.89 3.35806 11.8137 3.30323 11.7506C3.25161 11.6975 3.17742 11.6742 3.13548 11.7174ZM2.7871 11.4484C2.76452 11.4916 2.79677 11.5447 2.86129 11.5779C2.9129 11.6111 2.97742 11.6012 3 11.5547C3.02258 11.5115 2.99032 11.4584 2.92581 11.4252C2.86129 11.4053 2.80968 11.4152 2.7871 11.4484ZM3.83226 12.6305C3.78065 12.6736 3.8 12.7732 3.87419 12.8363C3.94839 12.9127 4.04194 12.9227 4.08387 12.8695C4.12581 12.8264 4.10645 12.7268 4.04194 12.6637C3.97097 12.5873 3.87419 12.5773 3.83226 12.6305ZM3.46452 12.1424C3.4129 12.1756 3.4129 12.2619 3.46452 12.3383C3.51613 12.4147 3.60323 12.4479 3.64516 12.4147C3.69677 12.3715 3.69677 12.2852 3.64516 12.2088C3.6 12.1324 3.51613 12.0992 3.46452 12.1424Z" fill="#414141"/>
</svg>
