<svg width="22" height="18" viewBox="0 0 22 18" fill="none" xmlns="http://www.w3.org/2000/svg">
<path d="M22 1L21.9897 1.47656C21.0238 1.50781 20.4428 2.09375 20.0716 3.05078C19.2122 5.30859 16.5206 12.4258 14.7331 17.0586H14.2656L11.4503 9.51562C10.3331 12 9.1025 14.5938 8.04032 17.0586C8.03 17.0703 7.52469 17.0586 7.52469 17.0469C5.9125 12.7617 4.22125 8.50781 2.60563 4.21094C2.21375 3.16797 0.907504 1.47656 0.00687927 1.48828C0.00687927 1.36719 -0.00343323 1.09766 -0.00343323 0.933594H5.56188V1.47656C4.90188 1.51953 3.74688 1.99609 4.07344 2.8125C4.82625 4.75391 7.63469 12.1992 8.39094 14.0859C8.90657 12.9258 10.3778 9.82031 10.9794 8.50781C10.5016 7.40234 8.965 3.27734 8.47688 2.25781C8.14344 1.5625 7.23594 1.5 6.55875 1.48828V0.945312L11.4572 0.957031V1.46875C10.7903 1.49219 10.1475 1.77344 10.4466 2.48828C11.0963 4.05078 11.4984 5.14844 12.1 6.57812C12.2925 6.15625 13.2928 3.86719 13.7534 2.64062C14.0594 1.83594 13.6194 1.52344 12.4266 1.49219C12.4369 1.35156 12.4266 1.08984 12.4369 0.960938C13.9631 0.949219 16.2559 0.949219 16.6684 0.9375V1.46875C15.895 1.5 15.0941 1.96875 14.6713 2.70703L12.6363 7.50391C12.8563 8.13281 14.8122 13.082 15.015 13.625L19.2225 2.58594C18.9269 1.68359 17.9713 1.48828 17.6 1.48047V0.9375L21.9931 0.980469L22 1Z" fill="#00A8FF"/>
</svg>
